<svg width="122" height="24" viewBox="0 0 122 24" fill="none" xmlns="http://www.w3.org/2000/svg">
<path d="M11.5838 23.256C10.3678 23.256 9.33316 22.5093 8.47983 21.016C7.64782 19.5013 7.01849 17.3147 6.59182 14.456C6.48516 13.7947 6.35716 13.016 6.20782 12.12C6.07982 11.2027 5.95182 10.3173 5.82382 9.46401C5.69582 8.61068 5.57849 7.85335 5.47182 7.19201C5.36516 6.53068 5.29049 6.10401 5.24782 5.91201C5.14116 5.35735 4.87449 5.08001 4.44782 5.08001C3.99982 5.08001 3.66916 5.41068 3.45582 6.07201C3.26382 6.71201 3.16782 7.51201 3.16782 8.47201C3.16782 9.53868 3.28516 10.52 3.51982 11.416C3.75449 12.312 4.02116 13.1547 4.31982 13.944C4.63982 14.7333 4.93849 15.4907 5.21582 16.216C5.51449 16.9413 5.71716 17.6667 5.82382 18.392C5.95182 19.096 5.94116 19.832 5.79182 20.6C5.64249 21.3467 5.27982 22.1467 4.70382 23H0.319824V22.936C0.703824 22.2107 0.981158 21.3147 1.15182 20.248C1.34382 19.16 1.43982 17.784 1.43982 16.12V7.70401C1.43982 6.55201 1.55716 5.50668 1.79182 4.56801C2.02649 3.62935 2.35716 2.82935 2.78382 2.16801C3.23182 1.50668 3.75449 0.994678 4.35182 0.632011C4.94916 0.269346 5.59982 0.0880127 6.30382 0.0880127C6.85849 0.0880127 7.37049 0.226679 7.83982 0.504013C8.33049 0.781345 8.76782 1.16534 9.15182 1.65601C9.53583 2.14668 9.85583 2.73335 10.1118 3.41601C10.3892 4.09868 10.5918 4.83468 10.7198 5.62401L12.4478 16.6C12.5118 17.0907 12.6612 17.336 12.8958 17.336C12.9598 17.336 13.0238 17.3253 13.0878 17.304C13.1732 17.2613 13.2478 17.176 13.3118 17.048C13.3758 16.92 13.4292 16.728 13.4718 16.472C13.5145 16.216 13.5358 15.8747 13.5358 15.448C13.5358 14.7653 13.5252 13.7947 13.5038 12.536C13.4825 11.256 13.4718 9.64535 13.4718 7.70401C13.4718 6.63735 13.6105 5.64535 13.8878 4.72801C14.1652 3.78935 14.5492 2.97868 15.0398 2.29601C15.5305 1.61335 16.0958 1.08001 16.7358 0.696012C17.3972 0.290679 18.1118 0.0880127 18.8798 0.0880127C20.4158 0.0880127 21.5785 0.760012 22.3678 2.10401C23.1785 3.44801 23.5838 5.31468 23.5838 7.70401V16.12C23.5838 17.784 23.6692 19.16 23.8398 20.248C24.0318 21.3147 24.3198 22.2107 24.7038 22.936V23H18.9758C18.5492 23 18.1332 22.8293 17.7278 22.488C17.3225 22.1253 17.0452 21.6987 16.8958 21.208C16.6398 20.2693 16.5758 19.4373 16.7038 18.712C16.8318 17.9653 17.0238 17.1547 17.2798 16.28C17.5572 15.4053 17.8238 14.3813 18.0798 13.208C18.3358 12.0347 18.4638 10.5413 18.4638 8.72801C18.4638 8.25868 18.4318 7.80001 18.3678 7.35201C18.3252 6.90401 18.2292 6.52001 18.0798 6.20001C17.9518 5.85868 17.7812 5.59201 17.5678 5.40001C17.3545 5.18668 17.0878 5.08001 16.7678 5.08001C16.2772 5.08001 15.9038 5.47468 15.6478 6.26401C15.3918 7.05335 15.2425 8.37601 15.1998 10.232C15.1785 11.0213 15.1892 12.0133 15.2318 13.208C15.2745 14.4027 15.2958 15.7787 15.2958 17.336C15.2958 19.3413 14.9545 20.8347 14.2718 21.816C13.5892 22.776 12.6932 23.256 11.5838 23.256Z" fill="black"/>
<path d="M28.5816 23.192C26.2562 23.192 25.1576 22.9787 25.2856 22.552L26.8216 16.504C26.9282 16.1413 27.1416 16.0453 27.4616 16.216C28.1869 16.536 28.9122 16.792 29.6376 16.984C30.3842 17.176 31.0882 17.272 31.7496 17.272C32.0696 17.272 32.3042 17.2293 32.4536 17.144C32.6242 17.0373 32.7096 16.92 32.7096 16.792C32.7309 16.664 32.6669 16.536 32.5176 16.408C32.3896 16.2587 32.1869 16.1413 31.9096 16.056L29.1256 15.16C27.9096 14.776 27.4829 13.88 27.8456 12.472L29.1576 7.28801C29.5629 5.68801 29.8509 4.36535 30.0216 3.32001C30.1922 2.27468 30.0856 1.38935 29.7016 0.664013V0.600012L39.9736 0.632011V0.696012C39.5896 1.42135 39.4616 2.31735 39.5896 3.38401C39.7389 4.42935 39.9949 5.75201 40.3576 7.35201L42.4056 16.28C42.7682 17.88 43.1949 19.2133 43.6856 20.28C44.1976 21.3253 44.6456 22.2107 45.0296 22.936V23H36.9976V22.936C37.3816 22.2107 37.4989 21.3253 37.3496 20.28C37.2002 19.2133 36.9442 17.88 36.5816 16.28L34.8856 8.82401C34.6082 7.58668 34.2776 6.69068 33.8936 6.13601C33.5096 5.56001 33.1256 5.25068 32.7416 5.20801C32.3576 5.16535 32.0056 5.33601 31.6856 5.72001C31.3656 6.10401 31.1202 6.61601 30.9496 7.25601L29.8296 11.672C29.6589 12.2907 29.6482 12.76 29.7976 13.08C29.9469 13.4 30.2776 13.656 30.7896 13.848L32.2616 14.424C32.8162 14.6373 33.2962 14.8613 33.7016 15.096C34.1282 15.3093 34.4802 15.5653 34.7576 15.864C35.0562 16.1413 35.2696 16.472 35.3976 16.856C35.5469 17.24 35.6216 17.688 35.6216 18.2C35.6216 18.9467 35.4402 19.6293 35.0776 20.248C34.7149 20.8453 34.2136 21.368 33.5736 21.816C32.9336 22.2427 32.1869 22.584 31.3336 22.84C30.4802 23.0747 29.5629 23.192 28.5816 23.192Z" fill="black"/>
<path d="M44.7863 22.936C45.1703 22.2107 45.4477 21.3147 45.6183 20.248C45.8103 19.16 45.9063 17.784 45.9063 16.12V7.48001C45.9063 5.81601 45.8103 4.45068 45.6183 3.38401C45.4477 2.29601 45.1703 1.38935 44.7863 0.664013V0.600012H54.5463C55.6343 0.600012 56.6263 0.760012 57.5223 1.08001C58.4397 1.40001 59.229 1.84801 59.8903 2.42401C60.573 3.00001 61.0957 3.70401 61.4583 4.53601C61.8423 5.34668 62.0343 6.25335 62.0343 7.25601C62.0343 8.51468 61.821 9.69868 61.3943 10.808C60.989 11.896 60.4237 12.8453 59.6983 13.656C58.9943 14.4667 58.1517 15.1067 57.1703 15.576C56.2103 16.0453 55.1757 16.28 54.0663 16.28C53.405 16.28 52.7437 16.152 52.0823 15.896C51.4423 15.6187 50.8663 15.224 50.3543 14.712C49.8637 14.2 49.4797 13.5707 49.2023 12.824C48.925 12.0773 48.829 11.224 48.9143 10.264C48.9783 9.64535 49.1917 9.38935 49.5543 9.49601C50.685 9.85868 51.8797 10.136 53.1383 10.328C54.4183 10.52 55.5917 10.5627 56.6583 10.456C57.725 10.3493 58.5997 10.072 59.2823 9.62401C59.9863 9.17601 60.3383 8.50401 60.3383 7.60801C60.3383 6.88268 59.9863 6.31735 59.2823 5.91201C58.5997 5.48535 57.7143 5.27201 56.6263 5.27201C55.2397 5.27201 53.981 5.41068 52.8503 5.68801C51.741 5.96535 50.781 6.36001 49.9703 6.87201C49.181 7.36268 48.5623 7.94935 48.1143 8.63201C47.6877 9.31468 47.4743 10.0613 47.4743 10.872C47.4743 12.6853 47.9223 14.488 48.8183 16.28C49.7143 18.0507 51.0903 19.9067 52.9463 21.848C53.1383 22.0613 53.2343 22.3067 53.2343 22.584C53.2557 22.8613 53.085 23 52.7223 23H44.7863V22.936Z" fill="black"/>
<path d="M62.4426 22.936C62.8266 22.2107 63.1039 21.3147 63.2746 20.248C63.4666 19.16 63.5626 17.784 63.5626 16.12V7.48001C63.5626 5.81601 63.4666 4.45068 63.2746 3.38401C63.1039 2.29601 62.8266 1.38935 62.4426 0.664013V0.600012H69.8986C70.7946 0.600012 71.2426 1.21868 71.2426 2.45601C71.2426 3.45868 71.0932 4.35468 70.7946 5.14401C70.4959 5.91201 70.1119 6.62668 69.6426 7.28801C69.1946 7.92801 68.7039 8.52535 68.1706 9.08001C67.6586 9.61335 67.1679 10.1467 66.6986 10.68C66.2506 11.192 65.8772 11.7147 65.5786 12.248C65.2799 12.7813 65.1306 13.3573 65.1306 13.976C65.1306 14.5947 65.2479 15.1173 65.4826 15.544C65.7172 15.9493 66.1012 16.28 66.6346 16.536C67.1679 16.792 67.8719 16.984 68.7466 17.112C69.6212 17.2187 70.6986 17.272 71.9786 17.272C73.1306 17.272 74.0159 17.1227 74.6346 16.824C75.2532 16.504 75.5626 16.0347 75.5626 15.416C75.5626 15.0747 75.4239 14.776 75.1466 14.52C74.8906 14.264 74.5706 14.0187 74.1866 13.784C73.8026 13.5493 73.3759 13.3253 72.9066 13.112C72.4372 12.8773 72.0106 12.6213 71.6266 12.344C71.2426 12.0667 70.9119 11.7573 70.6346 11.416C70.3786 11.0533 70.2506 10.6267 70.2506 10.136C70.2506 9.51735 70.4426 8.94135 70.8266 8.40801C71.2319 7.85335 71.7332 7.42668 72.3306 7.12801C72.9492 6.80801 73.6212 6.65868 74.3466 6.68001C75.0719 6.70135 75.7546 6.96801 76.3946 7.48001C76.6932 7.71468 76.7572 8.02401 76.5866 8.40801C76.1386 9.45335 75.9572 10.36 76.0426 11.128C76.1492 11.896 76.3519 12.6427 76.6506 13.368C76.9492 14.072 77.2586 14.8293 77.5786 15.64C77.8986 16.4293 78.0586 17.3893 78.0586 18.52C78.0586 19.16 77.9306 19.7573 77.6746 20.312C77.4186 20.8453 77.0559 21.3147 76.5866 21.72C76.1172 22.1253 75.5412 22.4453 74.8586 22.68C74.1972 22.8933 73.4399 23 72.5866 23H62.4426V22.936Z" fill="black"/>
<path d="M78.4426 22.936C78.8266 22.2107 79.1039 21.3147 79.2746 20.248C79.4666 19.16 79.5626 17.784 79.5626 16.12V7.48001C79.5626 5.81601 79.4666 4.45068 79.2746 3.38401C79.1039 2.29601 78.8266 1.38935 78.4426 0.664013V0.600012H85.8986V0.664013C85.5146 1.38935 85.2266 2.29601 85.0346 3.38401C84.8639 4.45068 84.7786 5.81601 84.7786 7.48001V16.12C84.7786 17.784 84.8639 19.16 85.0346 20.248C85.2266 21.3147 85.5146 22.2107 85.8986 22.936V23H78.4426V22.936Z" fill="black"/>
<path d="M89.7728 23C88.6848 23 87.8315 22.7333 87.2128 22.2C86.5942 21.6453 86.2848 20.952 86.2848 20.12C86.2848 18.904 86.8608 17.752 88.0128 16.664L92.5888 12.376H91.2448C90.7968 12.376 90.5728 12.152 90.5728 11.704V11.384C90.5728 10.936 90.7968 10.712 91.2448 10.712H94.3808L94.8928 10.232C95.3195 9.82668 95.6822 9.31468 95.9808 8.69601C96.2795 8.07735 96.4288 7.51201 96.4288 7.00001C96.4288 6.06135 95.6075 5.59201 93.9648 5.59201C93.6448 5.59201 93.2395 5.61335 92.7488 5.65601C92.2795 5.69868 91.7675 5.77335 91.2128 5.88001C90.6795 5.96535 90.1142 6.08268 89.5168 6.23201C88.9408 6.36001 88.3862 6.52001 87.8528 6.71201C87.3408 6.88268 87.0848 6.71201 87.0848 6.20001V0.600012H97.9648C98.9888 0.600012 99.8315 0.888012 100.493 1.46401C101.154 2.04001 101.485 2.80801 101.485 3.76801C101.485 5.43201 99.9275 7.76801 96.8128 10.776H98.0928C98.5408 10.776 98.7648 11 98.7648 11.448V11.768C98.7648 12.216 98.5408 12.44 98.0928 12.44H95.0848C94.8075 12.7173 94.5302 12.9947 94.2528 13.272C93.9968 13.5493 93.7728 13.7733 93.5808 13.944C92.9408 14.5627 92.4928 15.0533 92.2368 15.416C91.9808 15.7573 91.8528 16.0773 91.8528 16.376C91.8528 16.9733 92.8128 17.272 94.7328 17.272C95.1808 17.272 95.6608 17.2507 96.1728 17.208C96.7062 17.144 97.2395 17.0587 97.7728 16.952C98.3062 16.824 98.8182 16.6853 99.3088 16.536C99.8208 16.3653 100.279 16.1733 100.685 15.96C100.962 15.8107 101.165 15.7573 101.293 15.8C101.421 15.8213 101.485 15.9813 101.485 16.28V23H89.7728Z" fill="black"/>
<path d="M107.892 22.936C108.276 22.2107 108.553 21.3147 108.724 20.248C108.916 19.16 109.012 17.784 109.012 16.12V3.22401C109.012 2.86135 108.948 2.62668 108.82 2.52001C108.713 2.41335 108.51 2.38135 108.212 2.42401C107.87 2.48801 107.476 2.70135 107.028 3.06401C106.58 3.42668 106.121 3.89601 105.652 4.47201C105.182 5.04801 104.713 5.70935 104.244 6.45601C103.796 7.18135 103.38 7.96001 102.996 8.79201C102.889 9.04801 102.718 9.13335 102.484 9.04801C102.27 8.94135 102.164 8.73868 102.164 8.44001V0.600012H121.076V8.44001C121.076 8.73868 120.958 8.94135 120.724 9.04801C120.51 9.13335 120.35 9.04801 120.244 8.79201C119.86 7.96001 119.433 7.18135 118.964 6.45601C118.516 5.70935 118.057 5.04801 117.588 4.47201C117.118 3.89601 116.66 3.42668 116.212 3.06401C115.764 2.70135 115.369 2.48801 115.028 2.42401C114.729 2.38135 114.516 2.41335 114.388 2.52001C114.281 2.62668 114.228 2.86135 114.228 3.22401V16.12C114.228 17.784 114.313 19.16 114.484 20.248C114.676 21.3147 114.964 22.2107 115.348 22.936V23H107.892V22.936Z" fill="black"/>
</svg>
