<svg xmlns="http://www.w3.org/2000/svg" xmlns:xlink="http://www.w3.org/1999/xlink" version="1.1" width="1080" height="400" viewBox="0 0 1080 400" xml:space="preserve">

<g transform="matrix(0.84 0 0 0.84 542.93 201.07)">
<g style="" vector-effect="non-scaling-stroke">
		<g transform="matrix(0.13 0 0 -0.13 -398.91 0)">
<path style="stroke: none; stroke-width: 1; stroke-dasharray: none; stroke-linecap: butt; stroke-dashoffset: 0; stroke-linejoin: miter; stroke-miterlimit: 4; fill: rgb(0,0,0); fill-rule: nonzero; opacity: 1;" vector-effect="non-scaling-stroke" transform=" translate(-2243.54, -5276.97)" d="M 2013 6654 C 1518 6587 1084 6217 921 5725 C 832 5455 826 5139 905 4865 C 940 4744 1034 4553 1111 4450 C 1319 4167 1618 3974 1955 3903 C 2070 3879 2371 3879 2500 3903 C 2784 3957 3009 4077 3220 4289 C 3284 4353 3356 4434 3382 4470 C 3640 4837 3706 5292 3564 5719 C 3518 5858 3482 5931 3398 6057 C 3097 6507 2578 6731 2013 6654 z M 2170 5915 L 2170 5350 L 1917 5350 L 1663 5350 L 1667 5408 C 1697 5834 1833 6217 2022 6397 C 2065 6438 2133 6480 2157 6480 C 2167 6480 2170 6364 2170 5915 z M 2386 6448 C 2528 6352 2673 6092 2749 5798 C 2782 5672 2810 5489 2810 5405 L 2810 5350 L 2560 5350 L 2310 5350 L 2310 5915 C 2310 6390 2312 6480 2324 6480 C 2331 6480 2359 6465 2386 6448 z M 1849 6408 C 1669 6184 1555 5843 1525 5438 L 1518 5350 L 1258 5350 L 999 5350 L 1005 5408 C 1061 5888 1360 6277 1800 6441 C 1841 6456 1881 6469 1887 6470 C 1894 6470 1877 6442 1849 6408 z M 2666 6445 C 2951 6349 3211 6118 3354 5832 C 3419 5702 3480 5483 3480 5379 L 3480 5350 L 3220 5350 C 2975 5350 2960 5351 2960 5368 C 2960 5427 2935 5622 2915 5725 C 2863 5985 2741 6263 2608 6423 C 2586 6449 2573 6470 2580 6470 C 2586 6470 2625 6459 2666 6445 z M 1520 5173 C 1520 5098 1543 4894 1561 4805 C 1613 4550 1730 4286 1862 4128 C 1884 4101 1896 4080 1890 4080 C 1868 4080 1737 4130 1670 4164 C 1340 4330 1099 4644 1026 5003 C 1017 5046 1007 5108 1003 5141 L 997 5200 L 1259 5200 L 1520 5200 L 1520 5173 z M 2170 4625 L 2170 4050 L 2135 4064 C 1983 4128 1806 4419 1726 4735 C 1700 4839 1676 4989 1665 5123 L 1658 5200 L 1914 5200 L 2170 5200 L 2170 4625 z M 2810 5138 C 2809 4995 2764 4757 2703 4581 C 2669 4481 2588 4320 2535 4244 C 2482 4170 2385 4079 2342 4063 L 2310 4052 L 2310 4626 L 2310 5200 L 2560 5200 L 2810 5200 L 2810 5138 z M 3480 5164 C 3480 5067 3419 4849 3358 4725 C 3270 4549 3092 4345 2935 4242 C 2842 4181 2697 4108 2624 4087 L 2573 4072 L 2634 4153 C 2734 4286 2829 4485 2883 4675 C 2919 4800 2938 4908 2952 5065 L 2964 5200 L 3222 5200 L 3480 5200 L 3480 5164 z" stroke-linecap="round"/>
</g>
		<g transform="matrix(0.13 0 0 -0.13 -82.72 -4.4)">
<path style="stroke: none; stroke-width: 1; stroke-dasharray: none; stroke-linecap: butt; stroke-dashoffset: 0; stroke-linejoin: miter; stroke-miterlimit: 4; fill: rgb(0,0,0); fill-rule: nonzero; opacity: 1;" vector-effect="non-scaling-stroke" transform=" translate(-4615, -5310)" d="M 4140 5310 L 4140 4700 L 4255 4700 L 4370 4700 L 4372 5056 L 4375 5413 L 4486 5169 C 4618 4877 4618 4877 4678 4997 C 4699 5040 4748 5147 4786 5235 L 4855 5395 L 4858 5048 L 4860 4700 L 4975 4700 L 5090 4700 L 5090 5310 L 5090 5920 L 4967 5920 L 4845 5920 L 4763 5728 C 4718 5622 4669 5505 4654 5468 C 4639 5431 4624 5403 4620 5405 C 4617 5407 4565 5524 4505 5664 L 4395 5920 L 4268 5920 L 4140 5920 L 4140 5310 z" stroke-linecap="round"/>
</g>
		<g transform="matrix(0.13 0 0 -0.13 58.41 -4.4)">
<path style="stroke: none; stroke-width: 1; stroke-dasharray: none; stroke-linecap: butt; stroke-dashoffset: 0; stroke-linejoin: miter; stroke-miterlimit: 4; fill: rgb(0,0,0); fill-rule: nonzero; opacity: 1;" vector-effect="non-scaling-stroke" transform=" translate(-5673.47, -5310)" d="M 5501 5828 C 5489 5777 5448 5596 5410 5425 C 5372 5255 5320 5025 5295 4916 C 5270 4807 5250 4713 5250 4708 C 5250 4703 5307 4701 5377 4702 L 5505 4705 L 5528 4808 L 5552 4910 L 5670 4910 C 5774 4910 5789 4908 5794 4893 C 5797 4883 5806 4836 5816 4788 L 5833 4700 L 5967 4700 C 6090 4700 6101 4701 6096 4718 C 6093 4727 6082 4773 6071 4820 C 6021 5035 5831 5858 5825 5888 L 5818 5920 L 5671 5920 L 5523 5920 L 5501 5828 z M 5727 5258 L 5756 5121 L 5673 5118 C 5604 5116 5590 5118 5590 5130 C 5590 5150 5659 5500 5667 5520 C 5670 5528 5679 5504 5686 5465 C 5693 5427 5711 5333 5727 5258 z" stroke-linecap="round"/>
</g>
		<g transform="matrix(0.13 0 0 -0.13 179.09 -4.4)">
<path style="stroke: none; stroke-width: 1; stroke-dasharray: none; stroke-linecap: butt; stroke-dashoffset: 0; stroke-linejoin: miter; stroke-miterlimit: 4; fill: rgb(0,0,0); fill-rule: nonzero; opacity: 1;" vector-effect="non-scaling-stroke" transform=" translate(-6578.57, -5310)" d="M 6220 5310 L 6220 4700 L 6345 4700 L 6470 4700 L 6470 4890 L 6470 5080 L 6518 5080 C 6697 5080 6835 5157 6895 5291 C 6969 5456 6943 5679 6837 5797 C 6754 5889 6641 5919 6383 5920 L 6220 5920 L 6220 5310 z M 6614 5651 C 6662 5621 6685 5569 6685 5490 C 6685 5380 6635 5324 6525 5313 L 6470 5307 L 6470 5495 L 6470 5683 L 6525 5677 C 6556 5674 6596 5662 6614 5651 z" stroke-linecap="round"/>
</g>
		<g transform="matrix(0.13 0 0 -0.13 279.62 -4.4)">
<path style="stroke: none; stroke-width: 1; stroke-dasharray: none; stroke-linecap: butt; stroke-dashoffset: 0; stroke-linejoin: miter; stroke-miterlimit: 4; fill: rgb(0,0,0); fill-rule: nonzero; opacity: 1;" vector-effect="non-scaling-stroke" transform=" translate(-7332.5, -5310)" d="M 7050 5310 L 7050 4700 L 7333 4700 L 7615 4700 L 7615 4825 L 7615 4950 L 7463 4950 L 7310 4950 L 7310 5435 L 7310 5920 L 7180 5920 L 7050 5920 L 7050 5310 z" stroke-linecap="round"/>
</g>
		<g transform="matrix(0.13 0 0 -0.13 353.28 -4.4)">
<path style="stroke: none; stroke-width: 1; stroke-dasharray: none; stroke-linecap: butt; stroke-dashoffset: 0; stroke-linejoin: miter; stroke-miterlimit: 4; fill: rgb(0,0,0); fill-rule: nonzero; opacity: 1;" vector-effect="non-scaling-stroke" transform=" translate(-7885, -5310)" d="M 7760 5310 L 7760 4700 L 7885 4700 L 8010 4700 L 8010 5310 L 8010 5920 L 7885 5920 L 7760 5920 L 7760 5310 z" stroke-linecap="round"/>
</g>
		<g transform="matrix(0.13 0 0 -0.13 435.88 -4.4)">
<path style="stroke: none; stroke-width: 1; stroke-dasharray: none; stroke-linecap: butt; stroke-dashoffset: 0; stroke-linejoin: miter; stroke-miterlimit: 4; fill: rgb(0,0,0); fill-rule: nonzero; opacity: 1;" vector-effect="non-scaling-stroke" transform=" translate(-8504.5, -5310)" d="M 8190 5800 L 8190 5680 L 8361 5680 C 8494 5680 8531 5677 8527 5668 C 8524 5661 8446 5493 8354 5295 L 8186 4935 L 8182 4818 L 8179 4700 L 8504 4700 L 8830 4700 L 8830 4825 L 8830 4950 L 8660 4950 C 8567 4950 8490 4953 8490 4957 C 8490 4961 8567 5130 8660 5333 L 8830 5701 L 8830 5811 L 8830 5920 L 8510 5920 L 8190 5920 L 8190 5800 z" stroke-linecap="round"/>
</g>
		<g transform="matrix(0.13 0 0 -0.13 538.02 -4.4)">
<path style="stroke: none; stroke-width: 1; stroke-dasharray: none; stroke-linecap: butt; stroke-dashoffset: 0; stroke-linejoin: miter; stroke-miterlimit: 4; fill: rgb(0,0,0); fill-rule: nonzero; opacity: 1;" vector-effect="non-scaling-stroke" transform=" translate(-9270.5, -5310)" d="M 8920 5800 L 8920 5680 L 9035 5680 L 9150 5680 L 9150 5190 L 9150 4700 L 9280 4700 L 9410 4700 L 9410 5190 L 9410 5680 L 9515 5680 L 9621 5680 L 9618 5798 L 9615 5915 L 9268 5918 L 8920 5920 L 8920 5800 z" stroke-linecap="round"/>
</g>
</g>
</g>
</svg>