<svg width="25" height="24" viewBox="0 0 25 24" fill="none" xmlns="http://www.w3.org/2000/svg">
<path d="M11.5838 23.256C10.3678 23.256 9.33316 22.5093 8.47983 21.016C7.64782 19.5013 7.01849 17.3147 6.59182 14.456C6.48516 13.7947 6.35716 13.016 6.20782 12.12C6.07982 11.2027 5.95182 10.3173 5.82382 9.46401C5.69582 8.61068 5.57849 7.85335 5.47182 7.19201C5.36516 6.53068 5.29049 6.10401 5.24782 5.91201C5.14116 5.35735 4.87449 5.08001 4.44782 5.08001C3.99982 5.08001 3.66916 5.41068 3.45582 6.07201C3.26382 6.71201 3.16782 7.51201 3.16782 8.47201C3.16782 9.53868 3.28516 10.52 3.51982 11.416C3.75449 12.312 4.02116 13.1547 4.31982 13.944C4.63982 14.7333 4.93849 15.4907 5.21582 16.216C5.51449 16.9413 5.71716 17.6667 5.82382 18.392C5.95182 19.096 5.94116 19.832 5.79182 20.6C5.64249 21.3467 5.27982 22.1467 4.70382 23H0.319824V22.936C0.703824 22.2107 0.981158 21.3147 1.15182 20.248C1.34382 19.16 1.43982 17.784 1.43982 16.12V7.70401C1.43982 6.55201 1.55716 5.50668 1.79182 4.56801C2.02649 3.62935 2.35716 2.82935 2.78382 2.16801C3.23182 1.50668 3.75449 0.994678 4.35182 0.632011C4.94916 0.269346 5.59982 0.0880127 6.30382 0.0880127C6.85849 0.0880127 7.37049 0.226679 7.83982 0.504013C8.33049 0.781345 8.76782 1.16534 9.15182 1.65601C9.53583 2.14668 9.85583 2.73335 10.1118 3.41601C10.3892 4.09868 10.5918 4.83468 10.7198 5.62401L12.4478 16.6C12.5118 17.0907 12.6612 17.336 12.8958 17.336C12.9598 17.336 13.0238 17.3253 13.0878 17.304C13.1732 17.2613 13.2478 17.176 13.3118 17.048C13.3758 16.92 13.4292 16.728 13.4718 16.472C13.5145 16.216 13.5358 15.8747 13.5358 15.448C13.5358 14.7653 13.5252 13.7947 13.5038 12.536C13.4825 11.256 13.4718 9.64535 13.4718 7.70401C13.4718 6.63735 13.6105 5.64535 13.8878 4.72801C14.1652 3.78935 14.5492 2.97868 15.0398 2.29601C15.5305 1.61335 16.0958 1.08001 16.7358 0.696012C17.3972 0.290679 18.1118 0.0880127 18.8798 0.0880127C20.4158 0.0880127 21.5785 0.760012 22.3678 2.10401C23.1785 3.44801 23.5838 5.31468 23.5838 7.70401V16.12C23.5838 17.784 23.6692 19.16 23.8398 20.248C24.0318 21.3147 24.3198 22.2107 24.7038 22.936V23H18.9758C18.5492 23 18.1332 22.8293 17.7278 22.488C17.3225 22.1253 17.0452 21.6987 16.8958 21.208C16.6398 20.2693 16.5758 19.4373 16.7038 18.712C16.8318 17.9653 17.0238 17.1547 17.2798 16.28C17.5572 15.4053 17.8238 14.3813 18.0798 13.208C18.3358 12.0347 18.4638 10.5413 18.4638 8.72801C18.4638 8.25868 18.4318 7.80001 18.3678 7.35201C18.3252 6.90401 18.2292 6.52001 18.0798 6.20001C17.9518 5.85868 17.7812 5.59201 17.5678 5.40001C17.3545 5.18668 17.0878 5.08001 16.7678 5.08001C16.2772 5.08001 15.9038 5.47468 15.6478 6.26401C15.3918 7.05335 15.2425 8.37601 15.1998 10.232C15.1785 11.0213 15.1892 12.0133 15.2318 13.208C15.2745 14.4027 15.2958 15.7787 15.2958 17.336C15.2958 19.3413 14.9545 20.8347 14.2718 21.816C13.5892 22.776 12.6932 23.256 11.5838 23.256Z" fill="white"/>
</svg>
