<svg xmlns="http://www.w3.org/2000/svg" xmlns:xlink="http://www.w3.org/1999/xlink" version="1.1" width="400" height="400" viewBox="0 0 400 400" xml:space="preserve">

<g transform="matrix(0.84 0 0 0.84 542.93 201.07)">
<g style="" vector-effect="non-scaling-stroke">
		<g transform="matrix(0.13 0 0 -0.13 -398.91 0)">
<path style="stroke: none; stroke-width: 1; stroke-dasharray: none; stroke-linecap: butt; stroke-dashoffset: 0; stroke-linejoin: miter; stroke-miterlimit: 4; fill: rgb(0,0,0); fill-rule: nonzero; opacity: 1;" vector-effect="non-scaling-stroke" transform=" translate(-2243.54, -5276.97)" d="M 2013 6654 C 1518 6587 1084 6217 921 5725 C 832 5455 826 5139 905 4865 C 940 4744 1034 4553 1111 4450 C 1319 4167 1618 3974 1955 3903 C 2070 3879 2371 3879 2500 3903 C 2784 3957 3009 4077 3220 4289 C 3284 4353 3356 4434 3382 4470 C 3640 4837 3706 5292 3564 5719 C 3518 5858 3482 5931 3398 6057 C 3097 6507 2578 6731 2013 6654 z M 2170 5915 L 2170 5350 L 1917 5350 L 1663 5350 L 1667 5408 C 1697 5834 1833 6217 2022 6397 C 2065 6438 2133 6480 2157 6480 C 2167 6480 2170 6364 2170 5915 z M 2386 6448 C 2528 6352 2673 6092 2749 5798 C 2782 5672 2810 5489 2810 5405 L 2810 5350 L 2560 5350 L 2310 5350 L 2310 5915 C 2310 6390 2312 6480 2324 6480 C 2331 6480 2359 6465 2386 6448 z M 1849 6408 C 1669 6184 1555 5843 1525 5438 L 1518 5350 L 1258 5350 L 999 5350 L 1005 5408 C 1061 5888 1360 6277 1800 6441 C 1841 6456 1881 6469 1887 6470 C 1894 6470 1877 6442 1849 6408 z M 2666 6445 C 2951 6349 3211 6118 3354 5832 C 3419 5702 3480 5483 3480 5379 L 3480 5350 L 3220 5350 C 2975 5350 2960 5351 2960 5368 C 2960 5427 2935 5622 2915 5725 C 2863 5985 2741 6263 2608 6423 C 2586 6449 2573 6470 2580 6470 C 2586 6470 2625 6459 2666 6445 z M 1520 5173 C 1520 5098 1543 4894 1561 4805 C 1613 4550 1730 4286 1862 4128 C 1884 4101 1896 4080 1890 4080 C 1868 4080 1737 4130 1670 4164 C 1340 4330 1099 4644 1026 5003 C 1017 5046 1007 5108 1003 5141 L 997 5200 L 1259 5200 L 1520 5200 L 1520 5173 z M 2170 4625 L 2170 4050 L 2135 4064 C 1983 4128 1806 4419 1726 4735 C 1700 4839 1676 4989 1665 5123 L 1658 5200 L 1914 5200 L 2170 5200 L 2170 4625 z M 2810 5138 C 2809 4995 2764 4757 2703 4581 C 2669 4481 2588 4320 2535 4244 C 2482 4170 2385 4079 2342 4063 L 2310 4052 L 2310 4626 L 2310 5200 L 2560 5200 L 2810 5200 L 2810 5138 z M 3480 5164 C 3480 5067 3419 4849 3358 4725 C 3270 4549 3092 4345 2935 4242 C 2842 4181 2697 4108 2624 4087 L 2573 4072 L 2634 4153 C 2734 4286 2829 4485 2883 4675 C 2919 4800 2938 4908 2952 5065 L 2964 5200 L 3222 5200 L 3480 5200 L 3480 5164 z" stroke-linecap="round"/>
</g>	
</g>
</g>
</svg>