<svg width="25" height="24" viewBox="0 0 25 24" fill="none" xmlns="http://www.w3.org/2000/svg">
<path d="M11.264 23.168C10.048 23.168 9.01333 22.4213 8.16 20.928C7.328 19.4133 6.69867 17.2267 6.272 14.368C6.16533 13.7067 6.03733 12.928 5.888 12.032C5.76 11.1147 5.632 10.2293 5.504 9.376C5.376 8.52267 5.25867 7.76533 5.152 7.104C5.04533 6.44267 4.97067 6.016 4.928 5.824C4.82133 5.26933 4.55467 4.992 4.128 4.992C3.68 4.992 3.34933 5.32267 3.136 5.984C2.944 6.624 2.848 7.424 2.848 8.384C2.848 9.45067 2.96533 10.432 3.2 11.328C3.43467 12.224 3.70133 13.0667 4 13.856C4.32 14.6453 4.61867 15.4027 4.896 16.128C5.19467 16.8533 5.39733 17.5787 5.504 18.304C5.632 19.008 5.62133 19.744 5.472 20.512C5.32267 21.2587 4.96 22.0587 4.384 22.912H0V22.848C0.384 22.1227 0.661333 21.2267 0.832 20.16C1.024 19.072 1.12 17.696 1.12 16.032V7.616C1.12 6.464 1.23733 5.41867 1.472 4.48C1.70667 3.54133 2.03733 2.74133 2.464 2.08C2.912 1.41867 3.43467 0.906666 4.032 0.543999C4.62933 0.181333 5.28 0 5.984 0C6.53867 0 7.05067 0.138667 7.52 0.416C8.01067 0.693333 8.448 1.07733 8.832 1.568C9.216 2.05867 9.536 2.64533 9.792 3.328C10.0693 4.01067 10.272 4.74667 10.4 5.536L12.128 16.512C12.192 17.0027 12.3413 17.248 12.576 17.248C12.64 17.248 12.704 17.2373 12.768 17.216C12.8533 17.1733 12.928 17.088 12.992 16.96C13.056 16.832 13.1093 16.64 13.152 16.384C13.1947 16.128 13.216 15.7867 13.216 15.36C13.216 14.6773 13.2053 13.7067 13.184 12.448C13.1627 11.168 13.152 9.55733 13.152 7.616C13.152 6.54933 13.2907 5.55733 13.568 4.64C13.8453 3.70133 14.2293 2.89067 14.72 2.208C15.2107 1.52533 15.776 0.992 16.416 0.608C17.0773 0.202667 17.792 0 18.56 0C20.096 0 21.2587 0.672 22.048 2.016C22.8587 3.36 23.264 5.22667 23.264 7.616V16.032C23.264 17.696 23.3493 19.072 23.52 20.16C23.712 21.2267 24 22.1227 24.384 22.848V22.912H18.656C18.2293 22.912 17.8133 22.7413 17.408 22.4C17.0027 22.0373 16.7253 21.6107 16.576 21.12C16.32 20.1813 16.256 19.3493 16.384 18.624C16.512 17.8773 16.704 17.0667 16.96 16.192C17.2373 15.3173 17.504 14.2933 17.76 13.12C18.016 11.9467 18.144 10.4533 18.144 8.64C18.144 8.17067 18.112 7.712 18.048 7.264C18.0053 6.816 17.9093 6.432 17.76 6.112C17.632 5.77067 17.4613 5.504 17.248 5.312C17.0347 5.09867 16.768 4.992 16.448 4.992C15.9573 4.992 15.584 5.38667 15.328 6.176C15.072 6.96533 14.9227 8.288 14.88 10.144C14.8587 10.9333 14.8693 11.9253 14.912 13.12C14.9547 14.3147 14.976 15.6907 14.976 17.248C14.976 19.2533 14.6347 20.7467 13.952 21.728C13.2693 22.688 12.3733 23.168 11.264 23.168Z" fill="#050000"/>
</svg>
